<svg aria-hidden="true" style="position: absolute; width: 0; height: 0; overflow: hidden;" version="1.1" xmlns="http://www.w3.org/2000/svg" xmlns:xlink="http://www.w3.org/1999/xlink">
<defs>
<symbol id="icon-lock" viewBox="0 0 32 32">
<path stroke-linejoin="miter" stroke-linecap="round" stroke-miterlimit="4" stroke-width="2" d="M16 22v-2.667"></path>
<path stroke-linejoin="miter" stroke-linecap="butt" stroke-miterlimit="4" stroke-width="2" d="M5.69 25.126c0.3 2.227 2.144 3.972 4.389 4.075 1.889 0.087 3.808 0.132 5.92 0.132s4.032-0.045 5.92-0.132c2.245-0.103 4.089-1.848 4.389-4.075 0.196-1.453 0.357-2.943 0.357-4.46s-0.161-3.006-0.357-4.46c-0.3-2.227-2.144-3.972-4.389-4.075-1.889-0.087-3.807-0.132-5.92-0.132s-4.032 0.045-5.92 0.132c-2.245 0.103-4.089 1.848-4.389 4.075-0.196 1.453-0.357 2.943-0.357 4.46s0.161 3.006 0.357 4.46z"></path>
<path stroke-linejoin="round" stroke-linecap="round" stroke-miterlimit="4" stroke-width="2" d="M10 12v-3.333c0-3.314 2.686-6 6-6s6 2.686 6 6v3.333"></path>
</symbol>

</defs>
</svg>
